<svg id="visual" viewBox="0 0 900 600" width="900" height="600" xmlns="http://www.w3.org/2000/svg" xmlns:xlink="http://www.w3.org/1999/xlink" version="1.1"><g stroke-width="1" stroke-linejoin="bevel"><path d="M455 307.9L531 361.9L473 291.1Z" fill="#f5d8e6" stroke="#f5d8e6"></path><path d="M531 361.9L522 290.1L473 291.1Z" fill="#f9d6e0" stroke="#f9d6e0"></path><path d="M531 361.9L600 355.9L522 290.1Z" fill="#ffd9a8" stroke="#ffd9a8"></path><path d="M455 307.9L435 430.6L531 361.9Z" fill="#ffd2cb" stroke="#ffd2cb"></path><path d="M531 361.9L552 446.6L600 355.9Z" fill="#f5d8e6" stroke="#f5d8e6"></path><path d="M435 430.6L552 446.6L531 361.9Z" fill="#f1daea" stroke="#f1daea"></path><path d="M600 355.9L630 296.1L522 290.1Z" fill="#ffd6b0" stroke="#ffd6b0"></path><path d="M347 275.1L348 316.9L455 307.9Z" fill="#ffd3c2" stroke="#ffd3c2"></path><path d="M455 307.9L348 316.9L435 430.6Z" fill="#ffd2cb" stroke="#ffd2cb"></path><path d="M348 316.9L386 447.6L435 430.6Z" fill="#ffd2cb" stroke="#ffd2cb"></path><path d="M435 430.6L431 521.3L552 446.6Z" fill="#f5d8e6" stroke="#f5d8e6"></path><path d="M473 291.1L347 275.1L455 307.9Z" fill="#f1daea" stroke="#f1daea"></path><path d="M469 173.4L347 275.1L473 291.1Z" fill="#ffd9a8" stroke="#ffd9a8"></path><path d="M469 173.4L473 291.1L522 290.1Z" fill="#ffd4b9" stroke="#ffd4b9"></path><path d="M570 139.4L469 173.4L522 290.1Z" fill="#ffd2cb" stroke="#ffd2cb"></path><path d="M631 499.3L620 446.6L552 446.6Z" fill="#ffd6b0" stroke="#ffd6b0"></path><path d="M552 446.6L620 446.6L600 355.9Z" fill="#ffd3c2" stroke="#ffd3c2"></path><path d="M600 355.9L693 361.9L630 296.1Z" fill="#f1daea" stroke="#f1daea"></path><path d="M386 447.6L431 521.3L435 430.6Z" fill="#ffd6b0" stroke="#ffd6b0"></path><path d="M620 446.6L693 361.9L600 355.9Z" fill="#ffd3d3" stroke="#ffd3d3"></path><path d="M641 161.4L570 139.4L630 296.1Z" fill="#ffd3c2" stroke="#ffd3c2"></path><path d="M630 296.1L570 139.4L522 290.1Z" fill="#fdd4da" stroke="#fdd4da"></path><path d="M431 521.3L519 544.3L552 446.6Z" fill="#f9d6e0" stroke="#f9d6e0"></path><path d="M519 544.3L631 499.3L552 446.6Z" fill="#f9d6e0" stroke="#f9d6e0"></path><path d="M620 446.6L754 448.6L693 361.9Z" fill="#fdd4da" stroke="#fdd4da"></path><path d="M443 115.7L342 175.4L469 173.4Z" fill="#ffd3d3" stroke="#ffd3d3"></path><path d="M469 173.4L342 175.4L347 275.1Z" fill="#f1daea" stroke="#f1daea"></path><path d="M270 294.1L281 396.6L348 316.9Z" fill="#ffd2cb" stroke="#ffd2cb"></path><path d="M570 139.4L443 115.7L469 173.4Z" fill="#ffd4b9" stroke="#ffd4b9"></path><path d="M270 294.1L348 316.9L347 275.1Z" fill="#f1daea" stroke="#f1daea"></path><path d="M348 316.9L281 396.6L386 447.6Z" fill="#ffd2cb" stroke="#ffd2cb"></path><path d="M386 447.6L338 492.3L431 521.3Z" fill="#f9d6e0" stroke="#f9d6e0"></path><path d="M281 396.6L338 492.3L386 447.6Z" fill="#ffd2cb" stroke="#ffd2cb"></path><path d="M759 231.1L641 161.4L630 296.1Z" fill="#ffd3d3" stroke="#ffd3d3"></path><path d="M342 175.4L270 294.1L347 275.1Z" fill="#f1daea" stroke="#f1daea"></path><path d="M641 161.4L610 119.7L570 139.4Z" fill="#fdd4da" stroke="#fdd4da"></path><path d="M570 139.4L569 92.7L443 115.7Z" fill="#ffd9a8" stroke="#ffd9a8"></path><path d="M610 119.7L569 92.7L570 139.4Z" fill="#ecdced" stroke="#ecdced"></path><path d="M270 294.1L231 365.9L281 396.6Z" fill="#f1daea" stroke="#f1daea"></path><path d="M281 396.6L295 527.3L338 492.3Z" fill="#ffd2cb" stroke="#ffd2cb"></path><path d="M431 521.3L478 600L519 544.3Z" fill="#ffd6b0" stroke="#ffd6b0"></path><path d="M519 544.3L622 600L631 499.3Z" fill="#ffd2cb" stroke="#ffd2cb"></path><path d="M390 600L478 600L431 521.3Z" fill="#ffd4b9" stroke="#ffd4b9"></path><path d="M478 600L533 600L519 544.3Z" fill="#ffd9a8" stroke="#ffd9a8"></path><path d="M183 407.6L295 527.3L281 396.6Z" fill="#ffd4b9" stroke="#ffd4b9"></path><path d="M338 492.3L390 600L431 521.3Z" fill="#ffd9a8" stroke="#ffd9a8"></path><path d="M782 239.1L759 231.1L810 324.9Z" fill="#fdd4da" stroke="#fdd4da"></path><path d="M693 361.9L759 231.1L630 296.1Z" fill="#ffd3c2" stroke="#ffd3c2"></path><path d="M641 161.4L728 146.4L610 119.7Z" fill="#f5d8e6" stroke="#f5d8e6"></path><path d="M705 537.3L754 448.6L631 499.3Z" fill="#f1daea" stroke="#f1daea"></path><path d="M631 499.3L754 448.6L620 446.6Z" fill="#fdd4da" stroke="#fdd4da"></path><path d="M295 527.3L390 600L338 492.3Z" fill="#ffd3d3" stroke="#ffd3d3"></path><path d="M622 600L705 537.3L631 499.3Z" fill="#fdd4da" stroke="#fdd4da"></path><path d="M533 600L622 600L519 544.3Z" fill="#fdd4da" stroke="#fdd4da"></path><path d="M287 79.7L263 146.4L342 175.4Z" fill="#ecdced" stroke="#ecdced"></path><path d="M342 175.4L210 207.4L270 294.1Z" fill="#ffd6b0" stroke="#ffd6b0"></path><path d="M270 294.1L194 303.9L231 365.9Z" fill="#ffd4b9" stroke="#ffd4b9"></path><path d="M355 66.7L342 175.4L443 115.7Z" fill="#f9d6e0" stroke="#f9d6e0"></path><path d="M613 0L576 0L569 92.7Z" fill="#ffd6b0" stroke="#ffd6b0"></path><path d="M759 231.1L728 146.4L641 161.4Z" fill="#f9d6e0" stroke="#f9d6e0"></path><path d="M435 0L355 66.7L443 115.7Z" fill="#ecdced" stroke="#ecdced"></path><path d="M210 207.4L194 303.9L270 294.1Z" fill="#ecdced" stroke="#ecdced"></path><path d="M231 365.9L183 407.6L281 396.6Z" fill="#f5d8e6" stroke="#f5d8e6"></path><path d="M810 324.9L759 231.1L693 361.9Z" fill="#ffd3d3" stroke="#ffd3d3"></path><path d="M759 231.1L770 124.7L728 146.4Z" fill="#ffd2cb" stroke="#ffd2cb"></path><path d="M263 146.4L210 207.4L342 175.4Z" fill="#f1daea" stroke="#f1daea"></path><path d="M754 448.6L810 324.9L693 361.9Z" fill="#ffd4b9" stroke="#ffd4b9"></path><path d="M194 303.9L183 407.6L231 365.9Z" fill="#ffd3d3" stroke="#ffd3d3"></path><path d="M355 66.7L287 79.7L342 175.4Z" fill="#f5d8e6" stroke="#f5d8e6"></path><path d="M263 146.4L144 113.7L210 207.4Z" fill="#ffd6b0" stroke="#ffd6b0"></path><path d="M576 0L435 0L569 92.7Z" fill="#f5d8e6" stroke="#f5d8e6"></path><path d="M569 92.7L435 0L443 115.7Z" fill="#f1daea" stroke="#f1daea"></path><path d="M355 66.7L328 0L287 79.7Z" fill="#ffd3d3" stroke="#ffd3d3"></path><path d="M210 207.4L170 232.1L194 303.9Z" fill="#ffd2cb" stroke="#ffd2cb"></path><path d="M94 313.9L123 458.6L183 407.6Z" fill="#ffd3d3" stroke="#ffd3d3"></path><path d="M144 113.7L170 232.1L210 207.4Z" fill="#ecdced" stroke="#ecdced"></path><path d="M613 0L569 92.7L610 119.7Z" fill="#ecdced" stroke="#ecdced"></path><path d="M835 174.4L770 124.7L759 231.1Z" fill="#ffd9a8" stroke="#ffd9a8"></path><path d="M723 46.7L613 0L610 119.7Z" fill="#fdd4da" stroke="#fdd4da"></path><path d="M835 174.4L759 231.1L782 239.1Z" fill="#ffd9a8" stroke="#ffd9a8"></path><path d="M823 535.3L835 390.6L754 448.6Z" fill="#ecdced" stroke="#ecdced"></path><path d="M754 448.6L835 390.6L810 324.9Z" fill="#ffd9a8" stroke="#ffd9a8"></path><path d="M900 244.1L835 174.4L782 239.1Z" fill="#ffd6b0" stroke="#ffd6b0"></path><path d="M723 46.7L610 119.7L728 146.4Z" fill="#ecdced" stroke="#ecdced"></path><path d="M622 600L742 600L705 537.3Z" fill="#f9d6e0" stroke="#f9d6e0"></path><path d="M705 537.3L823 535.3L754 448.6Z" fill="#ffd4b9" stroke="#ffd4b9"></path><path d="M198 550.3L247 600L295 527.3Z" fill="#ffd3d3" stroke="#ffd3d3"></path><path d="M295 527.3L247 600L390 600Z" fill="#ffd3c2" stroke="#ffd3c2"></path><path d="M770 124.7L723 46.7L728 146.4Z" fill="#ffd2cb" stroke="#ffd2cb"></path><path d="M183 407.6L198 550.3L295 527.3Z" fill="#f1daea" stroke="#f1daea"></path><path d="M435 0L328 0L355 66.7Z" fill="#f1daea" stroke="#f1daea"></path><path d="M287 79.7L144 113.7L263 146.4Z" fill="#ffd4b9" stroke="#ffd4b9"></path><path d="M900 244.1L782 239.1L810 324.9Z" fill="#ffd4b9" stroke="#ffd4b9"></path><path d="M779 0L751 0L723 46.7Z" fill="#f9d6e0" stroke="#f9d6e0"></path><path d="M742 600L823 535.3L705 537.3Z" fill="#ffd3d3" stroke="#ffd3d3"></path><path d="M94 313.9L183 407.6L194 303.9Z" fill="#ffd3d3" stroke="#ffd3d3"></path><path d="M183 407.6L123 458.6L198 550.3Z" fill="#ffd2cb" stroke="#ffd2cb"></path><path d="M112 518.3L207 600L198 550.3Z" fill="#ffd6b0" stroke="#ffd6b0"></path><path d="M198 550.3L207 600L247 600Z" fill="#ffd6b0" stroke="#ffd6b0"></path><path d="M328 0L277 0L287 79.7Z" fill="#fdd4da" stroke="#fdd4da"></path><path d="M86 289.1L194 303.9L170 232.1Z" fill="#f1daea" stroke="#f1daea"></path><path d="M86 289.1L94 313.9L194 303.9Z" fill="#f5d8e6" stroke="#f5d8e6"></path><path d="M900 420.6L900 380.9L835 390.6Z" fill="#ffd4b9" stroke="#ffd4b9"></path><path d="M835 390.6L900 380.9L810 324.9Z" fill="#ffd4b9" stroke="#ffd4b9"></path><path d="M81 136.4L86 289.1L170 232.1Z" fill="#f5d8e6" stroke="#f5d8e6"></path><path d="M0 457.6L112 518.3L123 458.6Z" fill="#ffd3c2" stroke="#ffd3c2"></path><path d="M207 0L144 113.7L287 79.7Z" fill="#f1daea" stroke="#f1daea"></path><path d="M823 535.3L900 420.6L835 390.6Z" fill="#f1daea" stroke="#f1daea"></path><path d="M900 380.9L900 244.1L810 324.9Z" fill="#f1daea" stroke="#f1daea"></path><path d="M779 0L723 46.7L770 124.7Z" fill="#f9d6e0" stroke="#f9d6e0"></path><path d="M779 0L770 124.7L900 105.7Z" fill="#f9d6e0" stroke="#f9d6e0"></path><path d="M723 46.7L751 0L613 0Z" fill="#ffd3c2" stroke="#ffd3c2"></path><path d="M900 244.1L900 210.4L835 174.4Z" fill="#ecdced" stroke="#ecdced"></path><path d="M0 457.6L123 458.6L94 313.9Z" fill="#ffd2cb" stroke="#ffd2cb"></path><path d="M123 458.6L112 518.3L198 550.3Z" fill="#f1daea" stroke="#f1daea"></path><path d="M900 105.7L770 124.7L835 174.4Z" fill="#ffd2cb" stroke="#ffd2cb"></path><path d="M277 0L207 0L287 79.7Z" fill="#ffd3d3" stroke="#ffd3d3"></path><path d="M742 600L848 600L823 535.3Z" fill="#ffd3c2" stroke="#ffd3c2"></path><path d="M823 535.3L900 552.3L900 420.6Z" fill="#f1daea" stroke="#f1daea"></path><path d="M144 113.7L81 136.4L170 232.1Z" fill="#f5d8e6" stroke="#f5d8e6"></path><path d="M65 85.7L81 136.4L144 113.7Z" fill="#ffd2cb" stroke="#ffd2cb"></path><path d="M848 600L900 552.3L823 535.3Z" fill="#f1daea" stroke="#f1daea"></path><path d="M900 210.4L900 105.7L835 174.4Z" fill="#ffd4b9" stroke="#ffd4b9"></path><path d="M848 600L900 600L900 552.3Z" fill="#ffd3d3" stroke="#ffd3d3"></path><path d="M0 295.1L0 317.9L86 289.1Z" fill="#ffd2cb" stroke="#ffd2cb"></path><path d="M86 289.1L0 317.9L94 313.9Z" fill="#ffd6b0" stroke="#ffd6b0"></path><path d="M102 0L65 85.7L144 113.7Z" fill="#ffd4b9" stroke="#ffd4b9"></path><path d="M0 172.4L0 295.1L86 289.1Z" fill="#f9d6e0" stroke="#f9d6e0"></path><path d="M0 172.4L86 289.1L81 136.4Z" fill="#ecdced" stroke="#ecdced"></path><path d="M0 317.9L0 457.6L94 313.9Z" fill="#f9d6e0" stroke="#f9d6e0"></path><path d="M112 518.3L55 600L207 600Z" fill="#ffd6b0" stroke="#ffd6b0"></path><path d="M207 0L102 0L144 113.7Z" fill="#ecdced" stroke="#ecdced"></path><path d="M0 529.3L55 600L112 518.3Z" fill="#ecdced" stroke="#ecdced"></path><path d="M0 70.7L0 172.4L65 85.7Z" fill="#ecdced" stroke="#ecdced"></path><path d="M65 85.7L0 172.4L81 136.4Z" fill="#ffd2cb" stroke="#ffd2cb"></path><path d="M900 105.7L900 0L779 0Z" fill="#ffd3c2" stroke="#ffd3c2"></path><path d="M0 457.6L0 529.3L112 518.3Z" fill="#ffd2cb" stroke="#ffd2cb"></path><path d="M0 0L0 70.7L65 85.7Z" fill="#ffd2cb" stroke="#ffd2cb"></path><path d="M0 529.3L0 600L55 600Z" fill="#ffd2cb" stroke="#ffd2cb"></path><path d="M102 0L0 0L65 85.7Z" fill="#ffd3c2" stroke="#ffd3c2"></path></g></svg>